<svg xmlns="http://www.w3.org/2000/svg" xmlns:xlink="http://www.w3.org/1999/xlink" zoomAndPan="magnify" preserveAspectRatio="xMidYMid meet" version="1.0" viewBox="41.96 75.55 291 224.25"><defs><g/><clipPath id="69339314ba"><path d="M 194 75.546875 L 294 75.546875 L 294 284 L 194 284 Z M 194 75.546875 " clip-rule="nonzero"/></clipPath><clipPath id="2e839e0b5b"><path d="M 218 101 L 332.960938 101 L 332.960938 299.796875 L 218 299.796875 Z M 218 101 " clip-rule="nonzero"/></clipPath><clipPath id="79d66f83bd"><path d="M 81 75.546875 L 181 75.546875 L 181 284 L 81 284 Z M 81 75.546875 " clip-rule="nonzero"/></clipPath><clipPath id="231ec7c53e"><path d="M 41.960938 101 L 157 101 L 157 299.796875 L 41.960938 299.796875 Z M 41.960938 101 " clip-rule="nonzero"/></clipPath></defs><g clip-path="url(#69339314ba)"><path fill="#f2dfd7" d="M 194.628906 115.894531 C 194.628906 115.894531 219.0625 90.113281 235.519531 83.394531 C 251.976562 76.675781 293.371094 75.578125 293.371094 75.578125 L 293.371094 243.035156 C 293.371094 243.035156 255.746094 244.953125 239.289062 251.671875 C 222.832031 258.394531 194.628906 283.351562 194.628906 283.351562 Z M 194.628906 115.894531 " fill-opacity="1" fill-rule="nonzero"/></g><path fill="#e77965" d="M 314.105469 87.917969 C 314.105469 87.917969 307.730469 88.097656 299.027344 88.703125 L 299.027344 249.617188 C 299.027344 249.617188 261.398438 251.53125 244.941406 258.25 C 236.378906 261.75 216.175781 273.46875 206.878906 280.757812 L 202.167969 295.6875 C 202.167969 295.6875 234.140625 278.136719 250.597656 271.417969 C 267.054688 264.695312 314.105469 255.375 314.105469 255.375 Z M 314.105469 87.917969 " fill-opacity="1" fill-rule="nonzero"/><g clip-path="url(#2e839e0b5b)"><path fill="#65aa92" d="M 332.953125 101.902344 C 332.953125 101.902344 328.339844 102.039062 321.644531 102.445312 L 321.644531 261.960938 C 321.644531 261.960938 284.019531 263.871094 267.5625 270.59375 C 257.785156 274.582031 235.417969 282.527344 225.730469 290.335938 L 218.191406 299.800781 C 218.191406 299.800781 262.414062 284.722656 278.871094 278.003906 C 295.328125 271.28125 332.957031 269.359375 332.957031 269.359375 Z M 332.953125 101.902344 " fill-opacity="1" fill-rule="nonzero"/></g><g clip-path="url(#79d66f83bd)"><path fill="#f2dfd7" d="M 180.289062 115.894531 C 180.289062 115.894531 155.859375 90.113281 139.402344 83.394531 C 122.945312 76.675781 81.550781 75.578125 81.550781 75.578125 L 81.550781 243.035156 C 81.550781 243.035156 119.175781 244.953125 135.632812 251.671875 C 152.089844 258.394531 180.289062 283.351562 180.289062 283.351562 Z M 180.289062 115.894531 " fill-opacity="1" fill-rule="nonzero"/></g><path fill="#e77965" d="M 60.8125 87.917969 C 60.8125 87.917969 67.191406 88.097656 75.890625 88.703125 L 75.890625 249.617188 C 75.890625 249.617188 113.519531 251.53125 129.976562 258.25 C 138.539062 261.75 158.742188 273.46875 168.039062 280.757812 L 172.75 295.6875 C 172.75 295.6875 140.777344 278.136719 124.320312 271.417969 C 107.863281 264.695312 60.8125 255.375 60.8125 255.375 Z M 60.8125 87.917969 " fill-opacity="1" fill-rule="nonzero"/><g clip-path="url(#231ec7c53e)"><path fill="#65aa92" d="M 41.964844 101.902344 C 41.964844 101.902344 46.582031 102.039062 53.273438 102.445312 L 53.273438 261.960938 C 53.273438 261.960938 90.902344 263.871094 107.359375 270.59375 C 117.132812 274.582031 139.5 282.527344 149.191406 290.335938 L 156.730469 299.800781 C 156.730469 299.800781 112.503906 284.722656 96.050781 278.003906 C 79.59375 271.285156 41.96875 269.363281 41.96875 269.363281 Z M 41.964844 101.902344 " fill-opacity="1" fill-rule="nonzero"/></g><g fill="#e77965" fill-opacity="1"><g transform="translate(84.966795, 218.856432)"><g><path d="M 10.234375 0 L 38.730469 0 C 52.875 0 61.707031 -7.523438 61.707031 -19.664062 C 61.707031 -27.59375 57.792969 -33.511719 50.570312 -36.421875 C 56.289062 -39.332031 59.699219 -44.75 59.699219 -51.570312 C 59.699219 -62.910156 50.871094 -70.234375 37.425781 -70.234375 L 10.234375 -70.234375 Z M 19.0625 -8.226562 L 19.0625 -31.804688 L 38.429688 -31.804688 C 47.558594 -31.804688 52.675781 -27.492188 52.675781 -20.066406 C 52.675781 -12.542969 47.558594 -8.226562 38.527344 -8.226562 Z M 19.0625 -39.832031 L 19.0625 -62.007812 L 37.222656 -62.007812 C 45.753906 -62.007812 50.667969 -57.992188 50.667969 -50.871094 C 50.667969 -43.847656 45.851562 -39.832031 37.222656 -39.832031 Z M 19.0625 -39.832031 "/></g></g></g><g fill="#e77965" fill-opacity="1"><g transform="translate(152.284383, 218.856432)"><g><path d="M 1.707031 0 L 11.136719 0 L 17.558594 -15.953125 L 51.773438 -15.953125 L 58.394531 0 L 67.726562 0 L 38.828125 -70.234375 L 30.601562 -70.234375 Z M 20.96875 -24.179688 L 34.714844 -57.894531 L 48.460938 -24.179688 Z M 20.96875 -24.179688 "/></g></g></g><g fill="#e77965" fill-opacity="1"><g transform="translate(221.708772, 218.856432)"><g><path d="M 10.234375 0 L 19.0625 0 L 19.0625 -25.183594 L 34.515625 -25.183594 L 51.671875 0 L 62.308594 0 L 44.648438 -26.085938 C 54.882812 -28.59375 61.203125 -36.320312 61.203125 -47.660156 C 61.203125 -61.605469 51.570312 -70.234375 37.023438 -70.234375 L 10.234375 -70.234375 Z M 19.0625 -33.613281 L 19.0625 -61.804688 L 36.019531 -61.804688 C 46.253906 -61.804688 52.175781 -56.589844 52.175781 -47.660156 C 52.175781 -38.730469 46.253906 -33.613281 36.019531 -33.613281 Z M 19.0625 -33.613281 "/></g></g></g></svg>